# AST/ASF file generated using VICON BodyLanguage
# -----------------------------------------------
:version 1.10
:name VICON
:units
  mass 1.0
  length 0.45
  angle deg
:documentation
   .ast/.asf automatically generated from VICON data using
   VICON BodyBuilder and BodyLanguage model FoxedUp or BRILLIANT.MOD
:root
   order TX TY TZ RX RY RZ
   axis XYZ
   position 0 0 0  
   orientation 0 0 0 
:bonedata
  begin
     id 1 
     name lhipjoint
     direction 0.630082 -0.636569 0.44472 
     length 2.82754 
     axis 0 0 0  XYZ
  end
  begin
     id 2 
     name lfemur
     direction 0.34202 -0.939693 0  
     length 7.26371  
     axis 0 0 20  XYZ
    dof rx ry rz
    limits (-160.0 20.0)
           (-70.0 70.0)
           (-60.0 70.0)
  end
  begin
     id 3 
     name ltibia
     direction 0.34202 -0.939693 0   
     length 7.88616   
     axis 0 0 20   XYZ
    dof rx
    limits (-10.0 170.0)
  end
  begin
     id 4 
     name lfoot
     direction 0.0603448 -0.165796 0.984312   
     length 1.77861   
     axis -90 7.62852e-016 20   XYZ
    dof rx rz
    limits (-45.0 90.0)
           (-70.0 20.0)
  end
  begin
     id 5 
     name ltoes
     direction 1.53577e-011 -4.21876e-011 1   
     length 0.902235   
     axis -90 7.62852e-016 20   XYZ
    dof rx
    limits (-90.0 20.0)
  end
  begin
     id 6 
     name rhipjoint
     direction -0.656778 -0.61817 0.431866   
     length 2.9117  
     axis 0 0 0  XYZ 
  end
  begin
     id 7 
     name rfemur
     direction -0.34202 -0.939693 0   
     length 6.81603   
     axis 0 0 -20   XYZ
    dof rx ry rz
    limits (-160.0 20.0)
           (-70.0 70.0)
           (-70.0 60.0)
  end
  begin
     id 8 
     name rtibia
     direction -0.34202 -0.939693 0   
     length 8.05997   
     axis 0 0 -20   XYZ
    dof rx
    limits (-10.0 170.0)
 end
 begin
     id 9 
     name rfoot
     direction -0.0862404 -0.236944 0.967688   
     length 1.84899  
     axis -90 -7.62852e-016 -20   XYZ
    dof rx rz
    limits (-45.0 90.0)
           (-20.0 70.0)
  end
  begin
     id 10 
     name rtoes
     direction -1.53561e-011 -4.21798e-011 1   
     length 0.931579   
     axis -90 -7.62852e-016 -20   XYZ
    dof rx
    limits (-90.0 20.0)
  end
  begin
     id 11 
     name lowerback
     direction -0.0110203 0.991769 -0.127564   
     length 2.05686   
     axis 0 0 0   XYZ
    dof rx ry rz
    limits (-20.0 45.0)
           (-30.0 30.0)
           (-30.0 30.0)
  end
  begin
     id 12 
     name upperback
     direction 0.0109719 0.99993 -0.00432479   
     length 2.06234   
     axis 0 0 0   XYZ
    dof rx ry rz
    limits (-20.0 45.0)
           (-30.0 30.0)
           (-30.0 30.0)
  end
  begin
     id 13 
     name thorax
     direction 0.0173308 0.998351 0.0547306   
     length 2.09856   
     axis 0 0 0   XYZ
    dof rx ry rz
    limits (-20.0 45.0)
           (-30.0 30.0)
           (-30.0 30.0)
  end
  begin
     id 14 
     name lowerneck
     direction -0.0311736 0.989033 0.144366   
     length 1.98151   
     axis 0 0 0   XYZ
    dof rx ry rz
    limits (-20.0 45.0)
           (-30.0 30.0)
           (-30.0 30.0)
  end
  begin
     id 15 
     name upperneck
     direction 0.0421057 0.975772 -0.214698   
     length 2.01457   
     axis 0 0 0   XYZ
    dof rx ry rz
    limits (-20.0 45.0)
           (-30.0 30.0)
           (-30.0 30.0)
  end
  begin
     id 16
     name head
     direction 0.0136911 0.995958 -0.0887718  
     length 2.03562  
     axis 0 0 0   XYZ
    dof rx ry rz
    limits (-20.0 45.0)
           (-30.0 30.0)
           (-30.0 30.0)
  end
  begin
     id 17 
     name lclavicle
     direction 0.915335 0.396201 0.0720134  
     length 4.16217  
     axis 0 0 0   XYZ
    dof ry rz
    limits (-20.0 10.0)
           (0.0 20.0)
  end
  begin
     id 18 
     name lhumerus
     direction 1 -4.48965e-011 6.383e-018   
     length 4.93042   
     axis -180 -30 -90   XYZ
    dof rx ry rz
    limits (-60.0 90.0)
           (-90.0 90.0)
           (-90.0 90.0)
  end
  begin
     id 19
     name lradius
     direction 1 -4.48972e-011 8.8689e-027   
     length 3.68177   
     axis -180 -30 -90   XYZ
    dof rx
    limits (-10.0 170.0)
  end
  begin
     id 20
     name lwrist
     direction 1 -4.48953e-011 1.17971e-026   
     length 1.84089   
     axis -7.69454e-015 90 90   XYZ
    dof ry
    limits (-180.0 0.0)
 end
  begin
     id 21 
     name lhand
     direction 1 -4.49027e-011 2.35802e-026   
     length 0.721479   
     axis -1.50533e-014 90 90   XYZ
    dof rx rz
    limits (-90.0 90.0)
           (-45.0 45.0)
  end
  begin
     id 22 
     name lfingers
     direction 1 -4.48915e-011 4.72027e-026   
     length 0.581675   
     axis -3.01059e-014 90 90   XYZ
    dof rx
    limits (0.0 90.0)
  end
  begin
     id 23
     name lthumb
     direction 0.707107 -6.34948e-011 0.707107   
     length 0.835172   
     axis -90 45 -5.12164e-014   XYZ
    dof rx rz
    limits (-45.0 45.0)
           (-45.0 45.0)
  end
  begin
     id 24 
     name rclavicle
     direction -0.882781 0.469197 0.0234974   
     length 3.95647  
     axis 0 0 0   XYZ 
    dof ry rz
    limits (-10.0 20.0)
           (-20.0 0.0)
  end
  begin
     id 25 
     name rhumerus
     direction -1 -4.48965e-011 -1.54906e-018  
     length 5.07905   
     axis -180 30 90   XYZ
    dof rx ry rz
    limits (-90.0 60.0)
           (-90.0 90.0)
           (-90.0 90.0)
  end
  begin
     id 26 
     name rradius
     direction -1 -4.48972e-011 5.47489e-027   
     length 3.54394   
     axis -180 30 90   XYZ
    dof rx
    limits (-10.0 170.0)
  end
  begin
     id 27 
     name rwrist
     direction -1 -4.48955e-011 1.17969e-026   
     length 1.77197   
     axis -7.69454e-015 -90 -90   XYZ
    dof ry
    limits (-180.0 0.0)
  end
  begin
     id 28
     name rhand
     direction -1 -4.48982e-011 2.35888e-026   
     length 0.681156   
     axis -1.50533e-014 -90 -90   XYZ
    dof rx rz
    limits (-90.0 90.0)
           (-45.0 45.0)
  end
  begin
     id 29
     name rfingers
     direction -1 -4.48955e-011 4.71877e-026   
     length 0.549165   
     axis -3.01059e-014 -90 -90   XYZ
    dof rx
    limits (0.0 90.0)
  end
  begin
     id 30
     name rthumb
     direction -0.707107 -6.3491e-011 0.707107   
     length 0.788495   
     axis -90 -45 5.12164e-014   XYZ
    dof rx rz
    limits (-45.0 45.0)
           (-45.0 45.0)
  end
:hierarchy
  begin
    root lhipjoint rhipjoint lowerback
    lhipjoint lfemur
    lfemur ltibia
    ltibia lfoot
    lfoot ltoes
    rhipjoint rfemur
    rfemur rtibia
    rtibia rfoot
    rfoot rtoes
    lowerback upperback
    upperback thorax
    thorax lowerneck lclavicle rclavicle
    lowerneck upperneck
    upperneck head
    lclavicle lhumerus
    lhumerus lradius
    lradius lwrist
    lwrist lhand lthumb
    lhand lfingers
    rclavicle rhumerus
    rhumerus rradius
    rradius rwrist
    rwrist rhand rthumb
    rhand rfingers
  end

#!OML:ASF H:\Bending\Project 1\Capture day 1\Session 1\Subject.ASF
:FULLY-SPECIFIED
:DEGREES
80
root -12.3524 17.8244 -16.7933 -39.6245 88.4445 -71.6397
lowerback 44.4745 -1.62473 0.0928835
upperback 11.3286 -0.345001 -0.158916
thorax -8.02496 0.431842 -0.15441
lowerneck -19.656 -2.49017 -4.47397
upperneck 3.79906 -2.8116 7.14774
head 4.442 -0.951496 2.70687
rclavicle -2.26615e-014 -2.03257e-014
rhumerus 35.8362 12.7918 -76.9225
rradius 26.0696
rwrist 12.9727
rhand -21.9432 -21.6875
rfingers 7.12502
rthumb 4.46365 -51.6205
lclavicle -2.26615e-014 -2.03257e-014
lhumerus 38.7903 -15.2986 74.2924
lradius 27.1126
lwrist 29.0118
lhand -31.8941 10.6405
lfingers 7.12502
lthumb -5.14646 40.558
rfemur -52.5376 -14.9208 21.7325
rtibia 28.1612
rfoot -7.51574 -7.15443
rtoes -6.67749
lfemur -57.5926 2.53736 -9.2914
ltibia 37.4934
lfoot -11.4365 0.928887
ltoes -14.6388
81
root -12.3509 17.8063 -16.8014 -47.5195 88.8774 -80.4727
lowerback 44.9408 -2.0033 0.236285
upperback 11.4238 -0.723107 -0.419436
thorax -8.04706 0.281233 -0.347447
lowerneck -19.5202 -2.52802 -4.77909
upperneck 3.58299 -2.82387 7.63096
head 4.36993 -0.934625 2.90802
rclavicle 3.06128e-014 3.11595e-014
rhumerus 38.1208 13.1292 -76.1312
rradius 25.9711
rwrist 10.5785
rhand -21.5827 -22.2698
rfingers 7.12502
rthumb 4.81173 -52.1952
lclavicle 3.06128e-014 3.11595e-014
lhumerus 41.3567 -14.9049 73.2307
lradius 26.5059
lwrist 29.8322
lhand -31.9221 11.0657
lfingers 7.12502
lthumb -5.17353 40.9825
rfemur -54.1905 -15.4846 21.8676
rtibia 29.1232
rfoot -7.75557 -7.0377
rtoes -7.00269
lfemur -58.9539 2.45457 -9.73246
ltibia 37.7678
lfoot -11.2109 0.770961
ltoes -15.3611
82
root -12.3487 17.7872 -16.8101 -58.1263 89.3064 -91.9577
lowerback 45.3554 -2.2722 0.27579
upperback 11.512 -1.01288 -0.644414
thorax -8.06232 0.168765 -0.485587
lowerneck -19.3626 -2.58528 -5.02896
upperneck 3.41249 -2.86723 7.96906
head 4.30699 -0.943096 3.0513
rclavicle 3.18055e-015 1.44119e-015
rhumerus 40.262 12.937 -75.5572
rradius 25.6516
rwrist 8.43283
rhand -21.0156 -22.4574
rfingers 7.12502
rthumb 5.35927 -52.3697
lclavicle 3.18055e-015 1.44119e-015
lhumerus 44.0859 -14.5564 72.3039
lradius 25.5068
lwrist 30.3344
lhand -31.7503 11.6347
lfingers 7.12502
lthumb -5.00762 41.5555
rfemur -55.8353 -16.1621 22.0367
rtibia 30.0873
rfoot -8.03392 -6.73142
rtoes -7.05604
lfemur -60.2085 2.35657 -10.2261
ltibia 38.0264
lfoot -11.0114 0.601912
ltoes -15.7947
83
root -12.3456 17.7669 -16.8183 -86.1456 89.7237 -120.781
lowerback 45.7307 -2.42344 0.20681
upperback 11.5955 -1.20768 -0.833219
thorax -8.06894 0.097361 -0.569649
lowerneck -19.1489 -2.6619 -5.19733
upperneck 3.22123 -2.94415 8.14648
head 4.22668 -0.979681 3.12727
rclavicle -2.94201e-014 -3.48867e-014
rhumerus 42.1593 12.2482 -75.2361
rradius 25.2101
rwrist 6.56486
rhand -20.2934 -22.4109
rfingers 7.12502
rthumb 6.0566 -52.3043
lclavicle -2.94201e-014 -3.48867e-014
lhumerus 46.8935 -14.2851 71.481
lradius 24.2782
lwrist 30.5746
lhand -31.3031 12.2905
lfingers 7.12502
lthumb -4.57586 42.2211
rfemur -57.4644 -16.9403 22.2405
rtibia 31.0636
rfoot -8.34583 -6.24577
rtoes -6.82701
lfemur -61.3436 2.2677 -10.7866
ltibia 38.2712
lfoot -10.8429 0.384126
ltoes -15.8063
84
root -12.3417 17.7451 -16.825 -21.022 90.3162 -56.3807
lowerback 46.0794 -2.47398 0.038592
upperback 11.672 -1.3265 -1.0016
thorax -8.07224 0.0589532 -0.613865
lowerneck -18.8809 -2.75522 -5.27946
upperneck 2.99164 -3.05318 8.18913
head 4.12418 -1.04161 3.14376
rclavicle -1.59028e-015 5.56597e-015
rhumerus 43.9908 11.0974 -75.3819
rradius 24.4641
rwrist 5.18099
rhand -19.5141 -22.3188
rfingers 7.12502
rthumb 6.80887 -52.1894
lclavicle -1.59028e-015 5.56597e-015
lhumerus 49.6429 -14.1191 70.6894
lradius 23.058
lwrist 30.6826
lhand -30.5686 12.9388
lfingers 7.12502
lthumb -3.86656 42.8834
rfemur -59.0721 -17.7831 22.4504
rtibia 32.0694
rfoot -8.68053 -5.63105
rtoes -6.34621
lfemur -62.361 2.20757 -11.4369
ltibia 38.5079
lfoot -10.708 0.095549
ltoes -15.4064
85
root -12.3375 17.7212 -16.8298 -44.2838 90.8232 -80.2896
lowerback 46.4026 -2.44764 -0.209469
upperback 11.7399 -1.39173 -1.16305
thorax -8.07484 0.0439383 -0.633457
lowerneck -18.5838 -2.86575 -5.28537
upperneck 2.73784 -3.19567 8.13664
head 4.00867 -1.1261 3.11524
rclavicle -2.38542e-015 -8.34896e-015
rhumerus 45.7043 9.6565 -75.9039
rradius 23.5707
rwrist 4.20784
rhand -18.7685 -22.3134
rfingers 7.12502
rthumb 7.52858 -52.1595
lclavicle -2.38542e-015 -8.34896e-015
lhumerus 52.1989 -14.0863 69.8622
lradius 22.0741
lwrist 30.8092
lhand -29.6095 13.4919
lfingers 7.12502
lthumb -2.94033 43.4514
rfemur -60.6549 -18.641 22.6221
rtibia 33.1213
rfoot -9.02475 -4.96712
rtoes -5.69645
lfemur -63.2801 2.19273 -12.2008
ltibia 38.7465
lfoot -10.6 -0.274529
ltoes -14.7495
86
root -12.3336 17.6945 -16.8328 -51.1688 91.4005 -87.7588
lowerback 46.6961 -2.3705 -0.507968
upperback 11.7966 -1.42265 -1.32017
thorax -8.07942 0.0436645 -0.638104
lowerneck -18.2961 -2.99445 -5.23821
upperneck 2.48724 -3.37018 8.02395
head 3.89533 -1.22921 3.05697
rclavicle -6.75868e-015 -6.68413e-015
rhumerus 47.1491 8.15603 -76.4911
rradius 22.8223
rwrist 3.40442
rhand -18.0968 -22.4
rfingers 7.12502
rthumb 8.17689 -52.2218
lclavicle -6.75868e-015 -6.68413e-015
lhumerus 54.4651 -14.1876 68.9867
lradius 21.462
lwrist 31.0529
lhand -28.5392 13.9034
lfingers 7.12502
lthumb -1.90669 43.8747
rfemur -62.2072 -19.4645 22.7204
rtibia 34.2249
rfoot -9.3676 -4.34074
rtoes -5.02423
lfemur -64.1333 2.23639 -13.0867
ltibia 38.9991
lfoot -10.503 -0.730383
ltoes -14.065
87
root -12.3306 17.6645 -16.834 -54.2351 92.0065 -91.3635
lowerback 46.9548 -2.27015 -0.814502
upperback 11.84 -1.43318 -1.46697
thorax -8.08869 0.0515784 -0.636891
lowerneck -18.0507 -3.14014 -5.16654
upperneck 2.25627 -3.56976 7.875
head 3.79456 -1.34532 2.98179
rclavicle -3.26007e-014 -2.35001e-014
rhumerus 48.5311 6.63423 -77.2499
rradius 22.0117
rwrist 3.01556
rhand -17.4854 -22.4211
rfingers 7.12502
rthumb 8.76698 -52.219
lclavicle -3.26007e-014 -2.35001e-014
lhumerus 56.4019 -14.3893 68.1244
lradius 21.2267
lwrist 31.4208
lhand -27.4712 14.169
lfingers 7.12502
lthumb -0.875217 44.1469
rfemur -63.7184 -20.218 22.7392
rtibia 35.3677
rfoot -9.70346 -3.81894
rtoes -4.52339
lfemur -64.9543 2.34181 -14.0739
ltibia 39.2763
lfoot -10.3983 -1.26872
ltoes -13.5517
88
root -12.3284 17.6317 -16.834 -55.3579 92.6034 -92.9905
lowerback 47.1826 -2.17098 -1.08608
upperback 11.8702 -1.431 -1.58799
thorax -8.10448 0.0637297 -0.631535
lowerneck -17.8703 -3.29795 -5.10192
upperneck 2.03917 -3.78014 7.7034
head 3.70772 -1.46622 2.90023
rclavicle 7.15625e-015 2.45779e-014
rhumerus 49.801 5.22992 -77.9654
rradius 21.2599
rwrist 2.95126
rhand -16.8455 -22.2291
rfingers 7.12502
rthumb 9.38445 -52.0002
lclavicle 7.15625e-015 2.45779e-014
lhumerus 58.0237 -14.6299 67.3887
lradius 21.2676
lwrist 31.8587
lhand -26.4686 14.3038
lfingers 7.12502
lthumb 0.0931458 44.2836
rfemur -65.1695 -20.8879 22.7055
rtibia 36.5199
rfoot -10.0315 -3.43075
rtoes -4.37819
lfemur -65.7632 2.49323 -15.1073
ltibia 39.5814
lfoot -10.2742 -1.87111
ltoes -13.3041
